<svg xmlns="http://www.w3.org/2000/svg" height="24px" viewBox="0 -960 960 960" width="24px" fill="#FFFFFF"><path d="M669-768v241l83 82q8 8 13 19.5t5 24.5v38.81q0 27.38-18.35 45.79Q733.3-298 706-298H544v225q0 26.3-18.79 45.15Q506.42-9 480.21-9T435-27.85Q416-46.7 416-73v-225H254q-27.3 0-45.65-18.4Q190-334.81 190-362.19V-401q0-13 5-24.5t13-19.5l83-82v-241h-12q-16.3-8-26.65-23.79-10.35-15.79-10.35-36Q242-854 260.85-873T306-892h348q26.3 0 45.15 18.79 18.85 18.79 18.85 45Q718-808 707.65-792T681-768h-12Z"/></svg>